<svg width="79" height="14" viewBox="0 0 79 14" fill="none" xmlns="http://www.w3.org/2000/svg">
<!-- 信号强度图标 - 使用currentColor支持动态颜色 -->
<path fill-rule="evenodd" clip-rule="evenodd" d="M19.8498 2.03301C19.8498 1.39996 19.3723 0.88678 18.7832 0.88678H17.7165C17.1274 0.88678 16.6498 1.39996 16.6498 2.03301V11.967C16.6498 12.6 17.1274 13.1132 17.7165 13.1132H18.7832C19.3723 13.1132 19.8498 12.6 19.8498 11.967V2.03301ZM12.4157 3.33206H13.4824C14.0715 3.33206 14.5491 3.85756 14.5491 4.5058V11.9395C14.5491 12.5877 14.0715 13.1132 13.4824 13.1132H12.4157C11.8266 13.1132 11.3491 12.5877 11.3491 11.9395V4.5058C11.3491 3.85756 11.8266 3.33206 12.4157 3.33206ZM8.08396 5.98111H7.01729C6.42819 5.98111 5.95062 6.5133 5.95062 7.16979V11.9245C5.95062 12.581 6.42819 13.1132 7.01729 13.1132H8.08396C8.67306 13.1132 9.15062 12.581 9.15062 11.9245V7.16979C9.15062 6.5133 8.67306 5.98111 8.08396 5.98111ZM2.78317 8.4264H1.71651C1.1274 8.4264 0.649841 8.95099 0.649841 9.5981V11.9415C0.649841 12.5886 1.1274 13.1132 1.71651 13.1132H2.78317C3.37228 13.1132 3.84984 12.5886 3.84984 11.9415V9.5981C3.84984 8.95099 3.37228 8.4264 2.78317 8.4264Z" fill="currentColor"/>

<!-- WiFi图标 - 使用currentColor支持动态颜色 -->
<path fill-rule="evenodd" clip-rule="evenodd" d="M35.4211 3.30213C37.9082 3.30223 40.3002 4.22432 42.1027 5.8778C42.2385 6.00545 42.4554 6.00384 42.5891 5.87419L43.8866 4.61072C43.9543 4.54496 43.992 4.45588 43.9915 4.3632C43.9909 4.27052 43.9521 4.18187 43.8836 4.11688C39.1526 -0.257833 31.6889 -0.257833 26.9578 4.11688C26.8893 4.18183 26.8504 4.27044 26.8498 4.36313C26.8492 4.45581 26.8868 4.54491 26.9545 4.61072L28.2523 5.87419C28.3859 6.00404 28.6031 6.00565 28.7387 5.8778C30.5415 4.22421 32.9337 3.30212 35.4211 3.30213ZM35.4177 7.5224C36.7751 7.52232 38.0839 8.03406 39.0901 8.95819C39.2261 9.08934 39.4405 9.0865 39.5732 8.95178L40.8604 7.63247C40.9282 7.56327 40.9658 7.46939 40.9649 7.37184C40.9639 7.27429 40.9244 7.18121 40.8552 7.11342C37.7914 4.22257 33.0467 4.22257 29.9828 7.11342C29.9136 7.18121 29.8741 7.27434 29.8732 7.37192C29.8723 7.4695 29.9101 7.56337 29.978 7.63247L31.2649 8.95178C31.3976 9.0865 31.6119 9.08934 31.748 8.95819C32.7535 8.03467 34.0613 7.52297 35.4177 7.5224ZM37.9422 10.316C37.9441 10.4213 37.907 10.5229 37.8397 10.5967L35.6631 13.0514C35.5993 13.1236 35.5123 13.1642 35.4215 13.1642C35.3307 13.1642 35.2437 13.1236 35.1799 13.0514L33.0029 10.5967C32.9356 10.5228 32.8986 10.4212 32.9006 10.3159C32.9026 10.2105 32.9434 10.1108 33.0134 10.0401C34.4035 8.72625 36.4395 8.72625 37.8296 10.0401C37.8995 10.1108 37.9402 10.2106 37.9422 10.316Z" fill="currentColor"/>

<!-- 电池图标 - 简化版本，使用currentColor -->
<g>
<!-- 电池外框 -->
<rect x="51" y="2" width="24" height="10" rx="2" stroke="currentColor" stroke-width="1" fill="none"/>
<!-- 电池正极 -->
<rect x="75.5" y="4.5" width="2" height="5" rx="1" fill="currentColor"/>
<!-- 电池电量 -->
<rect x="53" y="4" width="18" height="6" rx="1" fill="currentColor" opacity="0.8"/>
<!-- 电池百分比文字 -->
<text x="63" y="9" font-family="Arial, sans-serif" font-size="6" text-anchor="middle" fill="currentColor" font-weight="bold">80</text>
</g>
</svg>
