<svg width="79" height="14" viewBox="0 0 79 14" fill="none" xmlns="http://www.w3.org/2000/svg">
<path fill-rule="evenodd" clip-rule="evenodd" d="M19.8498 2.03301C19.8498 1.39996 19.3723 0.88678 18.7832 0.88678H17.7165C17.1274 0.88678 16.6498 1.39996 16.6498 2.03301V11.967C16.6498 12.6 17.1274 13.1132 17.7165 13.1132H18.7832C19.3723 13.1132 19.8498 12.6 19.8498 11.967V2.03301ZM12.4157 3.33206H13.4824C14.0715 3.33206 14.5491 3.85756 14.5491 4.5058V11.9395C14.5491 12.5877 14.0715 13.1132 13.4824 13.1132H12.4157C11.8266 13.1132 11.3491 12.5877 11.3491 11.9395V4.5058C11.3491 3.85756 11.8266 3.33206 12.4157 3.33206ZM8.08396 5.98111H7.01729C6.42819 5.98111 5.95062 6.5133 5.95062 7.16979V11.9245C5.95062 12.581 6.42819 13.1132 7.01729 13.1132H8.08396C8.67306 13.1132 9.15062 12.581 9.15062 11.9245V7.16979C9.15062 6.5133 8.67306 5.98111 8.08396 5.98111ZM2.78317 8.4264H1.71651C1.1274 8.4264 0.649841 8.95099 0.649841 9.5981V11.9415C0.649841 12.5886 1.1274 13.1132 1.71651 13.1132H2.78317C3.37228 13.1132 3.84984 12.5886 3.84984 11.9415V9.5981C3.84984 8.95099 3.37228 8.4264 2.78317 8.4264Z" fill="black"/>
<path fill-rule="evenodd" clip-rule="evenodd" d="M35.4211 3.30213C37.9082 3.30223 40.3002 4.22432 42.1027 5.8778C42.2385 6.00545 42.4554 6.00384 42.5891 5.87419L43.8866 4.61072C43.9543 4.54496 43.992 4.45588 43.9915 4.3632C43.9909 4.27052 43.9521 4.18187 43.8836 4.11688C39.1526 -0.257833 31.6889 -0.257833 26.9578 4.11688C26.8893 4.18183 26.8504 4.27044 26.8498 4.36313C26.8492 4.45581 26.8868 4.54491 26.9545 4.61072L28.2523 5.87419C28.3859 6.00404 28.6031 6.00565 28.7387 5.8778C30.5415 4.22421 32.9337 3.30212 35.4211 3.30213ZM35.4177 7.5224C36.7751 7.52232 38.0839 8.03406 39.0901 8.95819C39.2261 9.08934 39.4405 9.0865 39.5732 8.95178L40.8604 7.63247C40.9282 7.56327 40.9658 7.46939 40.9649 7.37184C40.9639 7.27429 40.9244 7.18121 40.8552 7.11342C37.7914 4.22257 33.0467 4.22257 29.9828 7.11342C29.9136 7.18121 29.8741 7.27434 29.8732 7.37192C29.8723 7.4695 29.9101 7.56337 29.978 7.63247L31.2649 8.95178C31.3976 9.0865 31.6119 9.08934 31.748 8.95819C32.7535 8.03467 34.0613 7.52297 35.4177 7.5224ZM37.9422 10.316C37.9441 10.4213 37.907 10.5229 37.8397 10.5967L35.6631 13.0514C35.5993 13.1236 35.5123 13.1642 35.4215 13.1642C35.3307 13.1642 35.2437 13.1236 35.1799 13.0514L33.0029 10.5967C32.9356 10.5228 32.8986 10.4212 32.9006 10.3159C32.9026 10.2105 32.9434 10.1108 33.0134 10.0401C34.4035 8.72625 36.4395 8.72625 37.8296 10.0401C37.8995 10.1108 37.9402 10.2106 37.9422 10.316Z" fill="black"/>
<g clip-path="url(#clip0_0_1)">
<g opacity="0.3">
<path d="M51.6574 1.77772C50.9915 2.78661 50.9915 4.19108 50.9915 7C50.9915 9.80892 50.9915 11.2134 51.6574 12.2223C51.9457 12.659 52.3162 13.034 52.7477 13.3259C53.7444 14 55.1319 14 57.9069 14H68.7741C71.5491 14 72.9366 14 73.9333 13.3259C74.3648 13.034 74.7353 12.659 75.0236 12.2223C75.6896 11.2134 75.6896 9.80892 75.6896 7C75.6896 4.19108 75.6896 2.78661 75.0236 1.77772C74.7353 1.34096 74.3648 0.965956 73.9333 0.674122C72.9366 0 71.5491 0 68.7741 0H57.9069C55.1319 0 53.7444 0 52.7477 0.674122C52.3162 0.965956 51.9457 1.34096 51.6574 1.77772Z" fill="#5A5A5A"/>
<path d="M77.9915 6.75C77.9915 7.62313 77.4737 8.41122 76.6775 8.75V4.75C77.4737 5.08878 77.9915 5.87687 77.9915 6.75Z" fill="#5A5A5A"/>
</g>
<rect width="21" height="14" transform="translate(50.9915)" fill="#121212"/>
<path d="M60.0032 11.1719C59.3801 11.1719 58.8323 11.077 58.3596 10.8872C57.887 10.6938 57.5181 10.4271 57.2532 10.0869C56.9882 9.74316 56.8557 9.34749 56.8557 8.8999V8.88916C56.8557 8.55257 56.9327 8.24821 57.0867 7.97607C57.2442 7.70394 57.4591 7.47835 57.7312 7.29932C58.0033 7.1167 58.3149 6.99137 58.6658 6.92334V6.89111C58.211 6.78011 57.8422 6.57243 57.5593 6.26807C57.28 5.96012 57.1404 5.59489 57.1404 5.17236V5.16162C57.1404 4.76058 57.2621 4.4043 57.5056 4.09277C57.7491 3.77767 58.0857 3.5306 58.5154 3.35156C58.9451 3.16895 59.441 3.07764 60.0032 3.07764C60.5653 3.07764 61.0613 3.16895 61.491 3.35156C61.9207 3.5306 62.2572 3.77767 62.5007 4.09277C62.7442 4.4043 62.866 4.76058 62.866 5.16162V5.17236C62.866 5.59489 62.7245 5.96012 62.4417 6.26807C62.1588 6.57243 61.7917 6.78011 61.3406 6.89111V6.92334C61.6915 6.99137 62.003 7.1167 62.2751 7.29932C62.5473 7.47835 62.7603 7.70394 62.9143 7.97607C63.0719 8.24821 63.1506 8.55257 63.1506 8.88916V8.8999C63.1506 9.34749 63.0181 9.74316 62.7532 10.0869C62.4882 10.4271 62.1176 10.6938 61.6414 10.8872C61.1687 11.077 60.6226 11.1719 60.0032 11.1719ZM60.0032 9.99023C60.2861 9.99023 60.5367 9.9401 60.7551 9.83984C60.9736 9.736 61.1436 9.59456 61.2654 9.41553C61.3907 9.23291 61.4534 9.02523 61.4534 8.79248V8.78174C61.4534 8.54899 61.3925 8.3431 61.2708 8.16406C61.149 7.98145 60.9789 7.83822 60.7605 7.73438C60.5421 7.63053 60.2896 7.57861 60.0032 7.57861C59.7167 7.57861 59.4643 7.63053 59.2458 7.73438C59.0274 7.83822 58.8556 7.98145 58.7302 8.16406C58.6085 8.3431 58.5476 8.54899 58.5476 8.78174V8.79248C58.5476 9.02523 58.6103 9.23291 58.7356 9.41553C58.8609 9.59456 59.0328 9.736 59.2512 9.83984C59.4696 9.9401 59.7203 9.99023 60.0032 9.99023ZM60.0032 6.40234C60.2502 6.40234 60.4687 6.35758 60.6584 6.26807C60.8482 6.17497 60.995 6.04785 61.0989 5.88672C61.2063 5.72559 61.26 5.53939 61.26 5.32812V5.31738C61.26 5.10612 61.2063 4.91992 61.0989 4.75879C60.9915 4.59766 60.8429 4.47233 60.6531 4.38281C60.4669 4.29329 60.2502 4.24854 60.0032 4.24854C59.7561 4.24854 59.5377 4.29329 59.3479 4.38281C59.1581 4.47233 59.0095 4.59766 58.9021 4.75879C58.7947 4.91992 58.741 5.10612 58.741 5.31738V5.32812C58.741 5.53939 58.7947 5.72559 58.9021 5.88672C59.0095 6.04785 59.1581 6.17497 59.3479 6.26807C59.5377 6.35758 59.7561 6.40234 60.0032 6.40234ZM67.0334 11.1987C66.3961 11.1987 65.8464 11.034 65.3845 10.7046C64.9262 10.3716 64.5735 9.90072 64.3264 9.29199C64.0793 8.68327 63.9558 7.96175 63.9558 7.12744V7.1167C63.9558 6.27881 64.0793 5.55729 64.3264 4.95215C64.5735 4.34342 64.9262 3.87435 65.3845 3.54492C65.8464 3.21549 66.3961 3.05078 67.0334 3.05078C67.6744 3.05078 68.224 3.21549 68.6824 3.54492C69.1407 3.87435 69.4934 4.34342 69.7405 4.95215C69.9875 5.55729 70.1111 6.27881 70.1111 7.1167V7.12744C70.1111 7.96175 69.9875 8.68327 69.7405 9.29199C69.4934 9.90072 69.1407 10.3716 68.6824 10.7046C68.224 11.034 67.6744 11.1987 67.0334 11.1987ZM67.0334 9.91504C67.3414 9.91504 67.601 9.80404 67.8123 9.58203C68.0271 9.36003 68.19 9.04134 68.301 8.62598C68.4156 8.21061 68.4729 7.7111 68.4729 7.12744V7.1167C68.4729 6.52946 68.4156 6.02995 68.301 5.61816C68.19 5.2028 68.0271 4.8859 67.8123 4.66748C67.601 4.44548 67.3414 4.33447 67.0334 4.33447C66.7291 4.33447 66.4695 4.44548 66.2546 4.66748C66.0434 4.8859 65.8805 5.2028 65.7659 5.61816C65.6549 6.02995 65.5994 6.52946 65.5994 7.1167V7.12744C65.5994 7.7111 65.6549 8.21061 65.7659 8.62598C65.8805 9.04134 66.0434 9.36003 66.2546 9.58203C66.4695 9.80404 66.7291 9.91504 67.0334 9.91504Z" fill="white"/>
</g>
<defs>
<clipPath id="clip0_0_1">
<rect x="50.9915" width="27.3587" height="14" rx="4" fill="white"/>
</clipPath>
</defs>
</svg>
